<?xml version="1.0" standalone="no"?>
<!DOCTYPE svg PUBLIC "-//W3C//DTD SVG 20010904//EN"
 "http://www.w3.org/TR/2001/REC-SVG-20010904/DTD/svg10.dtd">
<svg version="1.0" xmlns="http://www.w3.org/2000/svg"
 width="818.000000pt" height="170.000000pt" viewBox="0 0 818.000000 170.000000"
 preserveAspectRatio="xMidYMid meet">

<g transform="translate(0.000000,170.000000) scale(0.100000,-0.100000)"
fill="#000000" stroke="none">
<path d="M705 1394 c-33 -14 -67 -32 -75 -40 -8 -9 12 -2 45 15 70 34 130 48
139 32 11 -17 36 -13 30 4 -9 23 -70 18 -139 -11z"/>
<path d="M1345 1407 c-37 -13 -54 -34 -55 -69 0 -19 5 -28 15 -28 9 0 18 -7
21 -15 10 -25 22 -17 16 11 -3 19 -9 24 -24 21 -16 -5 -19 -1 -16 21 2 18 8
26 18 24 8 -2 20 4 26 13 13 18 65 19 469 11 105 -2 143 -1 110 4 -78 13 -546
18 -580 7z"/>
<path d="M6713 1399 c-19 -5 -40 -22 -52 -42 -28 -45 -43 -87 -31 -87 6 0 10
8 10 18 0 24 57 103 73 101 7 -1 26 -1 42 0 23 1 27 3 15 11 -17 11 -15 11
-57 -1z"/>
<path d="M915 1380 c33 -10 72 -21 88 -24 33 -8 35 -23 5 -29 -20 -4 -19 -4 5
-6 16 0 27 4 27 12 0 19 -21 37 -44 37 -12 0 -39 7 -61 15 -22 8 -49 14 -60
14 -11 -1 7 -9 40 -19z"/>
<path d="M2535 1372 c-34 -29 -69 -81 -62 -88 3 -3 15 11 27 30 19 32 68 76
84 76 3 0 6 -6 6 -13 0 -6 16 -45 35 -84 19 -40 35 -81 35 -92 0 -11 4 -22 9
-25 4 -3 11 -25 15 -48 9 -60 26 -108 37 -108 6 0 6 7 0 18 -5 9 -19 58 -31
107 -12 50 -37 119 -55 155 -18 36 -35 73 -39 83 -8 24 -26 21 -61 -11z"/>
<path d="M3063 1388 c-10 -13 -26 -70 -39 -137 -4 -23 -3 -31 5 -27 6 4 11 22
11 40 0 39 28 126 41 126 11 0 29 -40 39 -90 l8 -35 1 45 c2 67 -38 114 -66
78z"/>
<path d="M7414 1372 c-36 -32 -69 -80 -61 -89 4 -3 10 3 13 13 9 26 75 94 91
94 7 0 13 -10 13 -22 0 -13 9 -34 20 -48 23 -29 26 -19 6 18 -8 15 -17 35 -20
45 -8 24 -26 21 -62 -11z"/>
<path d="M1995 1385 c6 -2 27 -6 48 -10 33 -5 37 -9 31 -27 -4 -14 -2 -18 5
-14 34 21 -5 57 -61 55 -18 0 -28 -2 -23 -4z"/>
<path d="M4083 1378 c-16 -8 -24 -24 -32 -72 -23 -137 -24 -149 -13 -142 7 4
12 28 13 54 0 26 4 56 8 67 8 18 10 16 18 -15 l10 -35 8 47 c7 49 1 73 -17 62
-6 -4 -9 -1 -6 7 3 8 12 15 20 17 18 4 27 -34 29 -122 1 -33 5 -74 9 -91 9
-31 4 100 -6 182 -6 49 -11 54 -41 41z"/>
<path d="M6790 1381 c0 -6 5 -13 10 -16 6 -3 10 -39 10 -80 0 -55 -4 -74 -15
-79 -8 -3 -15 -12 -15 -21 0 -8 7 -15 15 -15 17 0 21 -40 6 -55 -5 -6 -11 -76
-13 -157 -2 -81 0 -141 4 -135 6 12 14 121 24 361 3 72 7 133 10 138 3 4 -2
21 -11 38 -16 30 -25 38 -25 21z"/>
<path d="M2222 1368 c-17 -21 -33 -68 -46 -134 l-12 -62 28 -16 c15 -10 28
-24 28 -32 0 -11 7 -13 28 -8 30 7 53 30 51 53 -1 9 -6 4 -12 -11 -13 -33 -46
-37 -65 -8 -7 11 -19 20 -28 20 -13 0 -14 9 -9 58 4 31 11 61 16 67 5 5 9 16
9 25 0 9 6 25 14 36 14 19 15 19 51 -1 l37 -19 -5 -66 c-4 -42 -3 -55 2 -35
15 53 12 101 -6 118 -26 23 -67 31 -81 15z"/>
<path d="M2807 1367 c2 -4 14 -7 26 -5 16 2 22 -4 27 -27 3 -16 5 -41 4 -55 0
-14 -1 -53 -2 -88 -2 -60 -3 -62 -26 -56 -13 3 -27 1 -30 -5 -4 -6 -16 -11
-26 -11 -28 0 -35 42 -22 119 12 74 9 92 -7 34 -18 -62 -14 -137 7 -156 22
-20 39 -22 44 -6 2 7 17 12 33 13 22 1 31 7 36 26 11 38 10 193 -1 210 -5 8
-23 15 -39 15 -16 1 -27 -3 -24 -8z"/>
<path d="M3398 1297 c-41 -45 -93 -102 -114 -126 -68 -77 -135 -144 -139 -139
-2 2 -8 33 -13 68 -5 36 -10 51 -11 34 -2 -57 11 -124 25 -124 7 0 22 13 33
28 11 15 47 55 80 88 33 32 61 62 61 67 0 4 26 35 58 68 31 34 65 70 74 80 20
21 48 15 48 -10 0 -9 -9 -34 -21 -55 -11 -21 -18 -40 -15 -43 8 -8 46 75 46
101 0 14 -8 30 -18 35 -15 8 -31 -4 -94 -72z"/>
<path d="M3649 1358 c-6 -11 -17 -63 -24 -116 -8 -54 -17 -112 -21 -131 -5
-25 -4 -32 4 -27 7 4 12 19 12 34 0 40 32 226 41 237 4 6 19 11 32 13 31 2 38
-20 26 -80 -4 -23 -8 -90 -7 -148 l1 -105 7 118 c4 64 11 133 14 152 4 19 2
43 -4 54 -14 26 -67 25 -81 -1z"/>
<path d="M5228 1373 c17 -2 47 -2 65 0 17 2 3 4 -33 4 -36 0 -50 -2 -32 -4z"/>
<path d="M7100 1364 c-20 -23 -40 -81 -45 -129 -3 -28 -2 -36 5 -25 5 8 10 29
10 47 0 17 5 35 10 38 6 3 10 14 10 24 0 9 6 25 13 35 13 18 15 18 51 1 l38
-18 -5 -61 c-4 -39 -3 -52 3 -36 14 44 11 96 -7 113 -29 25 -67 31 -83 11z"/>
<path d="M7656 1366 c-8 -6 -16 -33 -20 -61 -4 -34 -3 -45 4 -35 5 8 10 29 10
46 0 38 15 51 55 49 l30 -2 3 -117 c3 -116 2 -117 -18 -111 -13 4 -28 1 -38
-9 -29 -25 -46 -4 -53 66 l-6 63 -1 -61 c-2 -48 2 -65 16 -77 22 -20 39 -22
44 -6 2 7 17 12 33 13 22 1 31 7 36 26 12 43 9 194 -4 211 -14 18 -71 21 -91
5z"/>
<path d="M2765 1349 c-10 -30 -2 -32 12 -3 6 13 7 24 3 24 -5 0 -12 -9 -15
-21z"/>
<path d="M5115 1361 c-32 -8 -118 -61 -111 -68 2 -3 23 9 47 26 23 17 54 31
68 32 14 1 37 5 51 9 l25 8 -25 0 c-14 0 -39 -3 -55 -7z"/>
<path d="M5340 1361 c8 -5 29 -11 45 -14 l30 -6 -30 14 c-34 16 -72 21 -45 6z"/>
<path d="M5795 1350 c-4 -6 -12 -10 -18 -9 -29 3 -35 -5 -55 -68 -26 -85 -38
-155 -23 -133 6 8 11 25 11 38 0 27 29 122 42 139 21 26 35 2 34 -57 -1 -34 4
-66 11 -76 7 -10 13 -36 13 -58 0 -27 -3 -36 -9 -27 -13 20 -23 -3 -14 -36 l7
-28 7 25 c4 14 5 -25 3 -87 -4 -127 -10 -118 86 -127 38 -4 47 -3 30 3 -14 5
-42 9 -62 10 l-38 1 0 181 c0 103 4 178 9 175 11 -7 20 14 14 32 -3 6 -11 12
-19 12 -8 0 -14 10 -14 23 0 13 -6 29 -12 35 -10 10 -10 15 2 22 10 6 18 3 28
-11 7 -10 19 -19 27 -19 15 0 45 -53 45 -80 0 -19 37 -56 46 -47 4 4 -1 9 -10
13 -9 3 -16 13 -16 21 0 25 -52 113 -67 113 -7 0 -16 7 -19 15 -7 17 -30 20
-39 5z"/>
<path d="M6080 1335 c-6 -15 -6 -34 0 -47 8 -20 9 -19 9 13 1 60 49 59 82 -3
14 -27 42 -58 51 -58 4 0 -13 27 -38 60 -51 68 -87 80 -104 35z"/>
<path d="M823 1342 c-6 -4 24 -7 67 -7 44 0 74 3 67 7 -15 10 -118 10 -134 0z"/>
<path d="M574 1309 c-16 -17 -45 -46 -64 -65 -19 -19 -31 -34 -26 -34 11 0
128 121 123 126 -2 2 -17 -10 -33 -27z"/>
<path d="M5415 1330 c-4 -6 -43 -10 -88 -10 -45 0 -87 -4 -94 -8 -6 -4 31 -5
83 -4 63 3 99 0 109 -8 17 -14 36 -5 29 15 -7 17 -32 27 -39 15z"/>
<path d="M743 1311 c-13 -11 -23 -23 -23 -27 0 -4 8 0 18 9 9 9 29 20 42 26
21 8 22 10 5 10 -11 0 -30 -8 -42 -18z"/>
<path d="M1855 1320 c-97 -11 -105 -16 -104 -58 l2 -37 6 35 c7 41 23 47 136
49 39 1 88 6 110 10 37 8 35 9 -25 8 -36 0 -92 -3 -125 -7z"/>
<path d="M1530 1290 c-39 -6 -25 -7 48 -4 86 3 104 1 109 -12 3 -8 1 -20 -6
-27 -6 -6 -11 -19 -11 -30 0 -17 -10 -18 -170 -16 -119 2 -174 -1 -182 -9 -7
-7 -9 -12 -4 -12 4 0 0 -10 -8 -22 -23 -33 -20 -63 9 -78 14 -7 28 -11 31 -8
3 4 -4 9 -15 13 -38 12 -34 75 6 75 19 0 24 4 19 17 -6 15 7 15 149 9 l155 -7
21 36 c12 19 25 35 30 35 5 0 9 11 9 24 0 22 -3 23 -67 23 -38 0 -93 -3 -123
-7z"/>
<path d="M5176 1291 c-4 -5 3 -7 14 -4 23 6 26 13 6 13 -8 0 -17 -4 -20 -9z"/>
<path d="M4940 1254 c-36 -33 -89 -138 -76 -152 3 -3 8 4 12 14 25 76 40 104
76 137 23 20 38 37 35 37 -4 0 -25 -16 -47 -36z"/>
<path d="M7515 1275 c10 -28 27 -77 32 -94 2 -8 6 -11 10 -8 7 8 -25 97 -40
112 -7 7 -7 3 -2 -10z"/>
<path d="M674 1255 c-15 -14 -31 -25 -35 -25 -5 0 -15 -15 -23 -34 -8 -19 -26
-42 -40 -51 -15 -10 -26 -27 -26 -39 0 -12 -7 -31 -15 -42 -8 -10 -14 -26 -15
-34 0 -8 9 0 20 18 11 18 20 43 20 56 0 15 7 26 19 29 11 2 28 22 40 44 11 22
36 50 55 64 20 13 36 27 36 32 0 12 -8 8 -36 -18z"/>
<path d="M5087 1239 c-65 -46 -82 -73 -92 -147 -7 -57 3 -82 51 -127 13 -12
24 -27 24 -32 0 -15 136 -71 146 -60 3 3 -20 13 -50 23 -44 14 -68 30 -111 75
-58 61 -61 70 -44 148 11 54 35 83 107 131 25 16 41 30 35 30 -5 0 -35 -18
-66 -41z"/>
<path d="M2418 1187 c-62 -109 -80 -148 -75 -154 3 -2 16 20 31 49 31 65 69
133 86 153 6 8 10 19 8 25 -1 5 -24 -27 -50 -73z"/>
<path d="M7297 1188 c-27 -44 -47 -82 -44 -84 4 -4 67 92 67 103 0 4 7 14 16
24 9 10 14 22 13 27 -2 5 -26 -26 -52 -70z"/>
<path d="M6093 1253 c12 -24 43 -94 58 -133 10 -25 18 -37 19 -27 0 10 -13 48
-30 84 -16 35 -30 69 -30 74 0 5 -5 9 -11 9 -5 0 -8 -3 -6 -7z"/>
<path d="M6596 1222 c-10 -23 -24 -43 -32 -46 -15 -6 -48 -65 -40 -73 3 -3 10
5 15 19 5 13 21 32 35 41 14 10 26 25 26 35 0 10 5 23 11 29 6 6 9 17 7 23 -2
7 -12 -6 -22 -28z"/>
<path d="M6230 1218 c1 -7 12 -26 26 -43 l25 -30 -21 43 c-23 43 -30 51 -30
30z"/>
<path d="M3404 1153 c-27 -36 -53 -72 -58 -78 -6 -8 0 -31 17 -66 15 -29 27
-59 27 -65 0 -7 5 -16 11 -20 15 -9 4 26 -27 90 l-24 48 56 74 c32 41 55 76
52 79 -2 3 -27 -25 -54 -62z"/>
<path d="M3007 1128 c-8 -98 -9 -213 -2 -206 6 6 19 288 13 288 -3 0 -8 -37
-11 -82z"/>
<path d="M7167 1173 c-6 -37 -11 -43 -32 -43 -13 0 -28 6 -32 13 -11 17 -63
50 -63 39 0 -4 14 -16 30 -25 17 -10 30 -24 30 -31 0 -20 59 -7 71 16 6 10 9
31 7 46 -3 22 -5 19 -11 -15z"/>
<path d="M443 1163 c-16 -21 -39 -58 -52 -82 -25 -45 -65 -181 -56 -189 5 -5
7 0 24 73 13 55 60 152 99 203 13 17 22 32 19 32 -3 0 -18 -17 -34 -37z"/>
<path d="M5165 1176 c-49 -74 8 -186 94 -186 62 0 76 18 76 95 0 62 -2 69 -30
91 -43 34 -118 34 -140 0z m126 -3 c22 -13 30 -27 35 -59 7 -48 -3 -107 -17
-98 -5 3 -15 2 -21 -2 -19 -12 -50 -12 -74 -2 -49 22 -72 122 -37 160 21 23
76 24 114 1z"/>
<path d="M5844 1176 c8 -34 46 -96 46 -75 0 8 -7 24 -15 35 -8 10 -15 27 -15
36 0 9 -5 20 -11 24 -9 5 -10 -1 -5 -20z"/>
<path d="M782 1159 c-24 -11 -42 -23 -39 -26 3 -3 18 2 34 10 15 8 39 20 53
25 14 6 18 11 10 11 -8 0 -35 -9 -58 -20z"/>
<path d="M878 1169 c4 -4 26 -9 49 -11 23 -2 39 0 35 3 -4 4 -26 9 -49 11 -23
2 -39 0 -35 -3z"/>
<path d="M1805 1167 c22 -5 74 -6 116 -3 63 5 78 4 83 -9 4 -11 -1 -15 -19
-15 -13 0 -27 -5 -31 -11 -5 -9 1 -10 22 -5 36 9 46 19 39 38 -5 12 -28 15
-128 14 -94 0 -113 -2 -82 -9z"/>
<path d="M2518 1153 c-21 -24 -38 -59 -37 -75 0 -7 9 6 19 30 11 23 25 42 32
42 13 0 35 -43 56 -110 30 -93 32 -98 26 -50 -4 25 -10 50 -14 55 -4 6 -11 25
-15 43 -3 17 -10 32 -15 32 -5 0 -10 10 -12 22 -4 28 -21 33 -40 11z"/>
<path d="M3806 1144 c-10 -14 -15 -35 -13 -47 4 -18 5 -17 6 6 0 15 6 27 11
27 6 0 10 7 10 15 0 19 63 21 78 2 16 -18 25 -64 18 -90 -4 -19 -41 -47 -62
-47 -3 0 -19 15 -35 33 -28 30 -30 30 -19 6 33 -73 130 -49 130 31 0 80 -85
124 -124 64z"/>
<path d="M5963 1144 c8 -16 18 -38 21 -48 4 -10 9 -16 12 -14 7 8 -21 74 -36
83 -9 5 -7 -2 3 -21z"/>
<path d="M7392 1148 c-11 -13 -23 -36 -26 -53 -5 -25 -3 -22 13 13 11 23 27
42 36 42 8 0 15 -4 15 -9 0 -5 11 -33 25 -62 14 -30 23 -43 19 -29 -7 33 -47
120 -55 120 -3 0 -15 -10 -27 -22z"/>
<path d="M1039 1145 c24 -8 51 -20 60 -27 27 -22 63 -40 68 -34 3 2 -10 12
-29 21 -18 10 -40 23 -48 30 -8 7 -33 15 -55 18 l-40 6 44 -14z"/>
<path d="M7566 1115 c5 -42 56 -155 69 -155 6 0 -1 17 -30 74 -14 27 -25 59
-26 70 0 12 -5 30 -10 41 -6 14 -7 4 -3 -30z"/>
<path d="M4015 1073 c-11 -110 -60 -255 -104 -304 -36 -41 -39 -42 -92 -40
-71 2 -88 23 -90 106 0 33 -5 83 -9 110 -7 39 -8 25 -6 -62 2 -112 3 -113 34
-143 25 -24 41 -30 75 -30 23 0 52 7 65 15 34 24 76 94 96 160 10 33 22 70 27
82 10 27 24 173 16 173 -3 0 -8 -30 -12 -67z"/>
<path d="M6280 1136 c0 -11 43 -76 47 -72 3 3 -5 21 -17 40 -20 33 -30 43 -30
32z"/>
<path d="M683 1073 c-53 -77 -56 -83 -44 -83 6 0 11 5 11 12 0 6 18 36 41 65
22 30 39 56 36 59 -2 2 -22 -22 -44 -53z"/>
<path d="M1868 1111 c-26 -4 -51 -11 -55 -15 -10 -10 97 3 117 15 18 10 12 10
-62 0z"/>
<path d="M5675 1053 c-15 -139 -21 -250 -14 -277 5 -16 7 -63 4 -105 l-4 -76
10 70 c5 39 6 86 2 105 -4 19 -6 42 -6 50 10 98 23 284 19 287 -2 2 -7 -22
-11 -54z"/>
<path d="M1540 1079 c-27 -6 -19 -7 35 -6 l70 2 -2 -170 c-1 -122 1 -153 7
-110 4 33 8 113 9 178 l1 117 -42 -1 c-24 -1 -59 -5 -78 -10z"/>
<path d="M1755 1080 c-4 -6 -3 -56 0 -113 4 -56 8 -140 11 -187 2 -47 7 -122
10 -168 4 -58 2 -102 -9 -150 -9 -37 -19 -82 -22 -99 -7 -33 -35 -47 -35 -18
0 17 -21 20 -36 5 -6 -6 -18 -5 -34 3 -28 14 -38 62 -21 106 5 14 12 53 15 86
4 47 3 53 -4 30 -5 -16 -12 -48 -15 -70 -2 -22 -7 -57 -11 -77 -3 -20 -1 -52
5 -71 10 -28 18 -36 42 -39 24 -4 32 0 38 14 6 18 8 17 19 -7 23 -51 46 -4 72
150 7 42 10 103 6 150 -3 44 -9 164 -12 267 -6 175 -5 186 13 191 15 4 14 5
-4 6 -12 0 -25 -4 -28 -9z"/>
<path d="M4832 1052 c-12 -19 -21 -36 -19 -38 6 -6 49 56 45 65 -2 5 -13 -7
-26 -27z"/>
<path d="M6490 1070 c-14 -11 -20 -20 -14 -20 6 0 19 9 29 20 23 25 17 25 -15
0z"/>
<path d="M6641 1072 c-8 -9 -26 -30 -40 -47 -18 -20 -13 -18 16 9 55 51 91 31
42 -25 -11 -13 -28 -37 -36 -54 -9 -16 -32 -50 -53 -75 -53 -65 -102 -140 -92
-140 5 0 17 16 28 35 10 19 22 35 26 35 5 0 8 7 8 15 0 7 6 18 14 22 7 4 35
40 61 78 26 39 54 77 62 87 18 20 13 72 -7 75 -8 1 -21 -5 -29 -15z"/>
<path d="M7234 1074 c-4 -10 -18 -43 -31 -73 -12 -29 -23 -59 -23 -66 0 -6
-14 -32 -31 -56 -28 -39 -29 -41 -6 -21 14 13 31 38 38 55 16 43 36 90 55 133
9 20 13 38 10 41 -3 3 -9 -3 -12 -13z"/>
<path d="M5890 1072 c0 -17 47 -157 63 -188 12 -23 13 -34 4 -43 -8 -8 -8 -11
0 -11 23 0 24 21 6 63 -30 66 -45 109 -50 145 -5 29 -23 57 -23 34z"/>
<path d="M845 1049 c-78 -42 -97 -88 -100 -246 l-3 -122 35 -16 c49 -24 77
-13 97 35 25 62 19 71 -9 13 -27 -59 -41 -64 -85 -33 -25 18 -27 24 -20 50 5
18 4 45 -2 67 -12 46 -4 111 21 168 15 34 32 51 73 74 60 35 54 43 -7 10z"/>
<path d="M990 1067 c0 -3 15 -10 32 -16 18 -6 28 -7 23 -2 -12 10 -55 25 -55
18z"/>
<path d="M1176 1060 c5 -9 29 -42 54 -75 l45 -59 0 -127 c0 -70 3 -122 7 -116
4 7 8 62 8 122 0 103 -2 112 -28 151 -29 44 -100 129 -86 104z"/>
<path d="M6003 1060 c12 -45 32 -90 39 -90 12 0 9 12 -18 60 -14 25 -23 38
-21 30z"/>
<path d="M6175 1049 c12 -40 59 -132 62 -122 2 5 -8 31 -22 57 -14 26 -25 53
-25 61 0 8 -5 17 -11 21 -8 4 -9 -1 -4 -17z"/>
<path d="M2460 1048 c0 -7 -11 -35 -25 -63 -14 -27 -28 -66 -32 -87 -5 -35 -4
-38 18 -38 22 0 22 1 4 14 -21 15 -23 4 39 149 9 21 12 37 6 37 -5 0 -10 -6
-10 -12z"/>
<path d="M7340 1050 c0 -6 -11 -32 -24 -59 -22 -45 -44 -113 -33 -101 14 15
74 170 66 170 -5 0 -9 -5 -9 -10z"/>
<path d="M6331 1040 c0 -8 6 -26 14 -40 8 -14 15 -36 15 -50 0 -14 7 -33 14
-42 14 -19 36 -24 36 -9 0 5 3 18 6 28 3 12 1 10 -8 -5 -16 -25 -28 -20 -28
12 -1 24 -49 129 -49 106z"/>
<path d="M1079 1017 c26 -28 31 -32 31 -19 0 4 -13 16 -28 26 l-27 19 24 -26z"/>
<path d="M6441 999 c-12 -23 -20 -44 -17 -46 2 -3 14 14 26 37 12 23 19 44 17
46 -3 3 -14 -14 -26 -37z"/>
<path d="M2326 1004 c-4 -9 -4 -19 -1 -22 2 -3 7 3 11 12 4 9 4 19 1 22 -2 3
-7 -3 -11 -12z"/>
<path d="M7481 1005 c0 -11 4 -29 9 -40 l9 -20 0 20 c0 11 -4 29 -9 40 l-9 20
0 -20z"/>
<path d="M507 1003 c-3 -4 -8 -26 -11 -48 l-6 -40 15 44 c13 41 14 64 2 44z"/>
<path d="M2730 1005 c0 -4 6 -19 14 -33 7 -15 22 -45 31 -67 10 -22 22 -48 26
-57 5 -10 9 -29 9 -42 0 -14 5 -28 11 -32 16 -9 2 49 -26 111 -12 28 -28 65
-35 83 -12 30 -30 52 -30 37z"/>
<path d="M3250 966 c-19 -32 -19 -42 0 -91 20 -53 40 -122 40 -140 0 -11 9
-31 20 -45 11 -14 20 -29 20 -34 0 -6 15 -39 33 -75 31 -63 94 -136 148 -174
24 -16 26 -21 16 -48 -10 -25 -16 -29 -52 -29 -32 -1 -37 -3 -22 -11 32 -19
71 -2 83 36 11 34 10 34 -58 95 -58 53 -75 75 -117 163 -67 139 -117 300 -105
336 11 31 27 31 36 -1 5 -20 6 -19 7 8 1 46 -23 51 -49 10z"/>
<path d="M4786 978 c-17 -24 -21 -99 -6 -133 5 -11 9 -15 9 -10 1 6 6 3 11 -5
8 -12 10 -11 10 6 0 12 -7 27 -15 34 -20 17 -19 79 2 102 9 10 14 21 11 24 -3
3 -13 -5 -22 -18z"/>
<path d="M1120 983 c0 -5 10 -15 23 -22 12 -6 28 -24 35 -38 18 -39 16 -187
-4 -224 -17 -35 -14 -48 7 -23 32 38 20 284 -14 284 -6 0 -19 7 -29 17 -10 9
-18 12 -18 6z"/>
<path d="M6519 925 c-24 -36 -47 -65 -51 -65 -5 0 -8 -5 -8 -11 0 -6 -10 -24
-22 -39 -13 -15 -28 -35 -34 -45 -10 -18 -12 -18 -51 1 -35 16 -46 29 -70 81
-15 35 -31 63 -35 63 -9 0 -1 -18 35 -87 43 -83 112 -105 142 -47 6 11 24 38
41 59 68 88 114 155 106 155 -5 0 -29 -29 -53 -65z"/>
<path d="M621 973 c0 -6 -4 -20 -7 -30 -5 -14 -4 -15 5 -7 7 7 11 20 8 30 -3
11 -5 14 -6 7z"/>
<path d="M4126 969 c-2 -8 -10 -36 -16 -64 -7 -27 -19 -60 -26 -72 -8 -12 -14
-32 -14 -45 0 -14 -24 -47 -67 -90 -37 -37 -64 -70 -61 -73 3 -3 35 25 72 62
48 49 66 75 66 94 0 15 7 32 15 39 8 7 15 22 15 34 0 11 7 43 15 70 8 27 13
51 10 54 -2 3 -6 -1 -9 -9z"/>
<path d="M2307 963 c-2 -5 -7 -20 -11 -35 -3 -14 -18 -40 -32 -57 -28 -33 -25
-43 4 -13 19 19 37 54 47 90 6 21 1 30 -8 15z"/>
<path d="M1892 944 c-18 -12 -22 -25 -22 -69 0 -29 3 -61 6 -70 9 -22 61 -47
85 -40 21 7 44 43 34 53 -3 3 -8 -4 -12 -16 -4 -17 -13 -22 -37 -22 -50 0 -60
12 -64 84 -4 64 -4 66 24 76 35 14 71 0 84 -32 l9 -23 0 22 c1 15 -9 28 -29
38 -37 19 -50 19 -78 -1z"/>
<path d="M6067 918 c9 -23 26 -53 37 -66 11 -12 26 -35 32 -50 7 -16 13 -20
13 -11 1 9 -10 31 -24 50 -14 19 -34 53 -44 77 -26 54 -36 55 -14 0z"/>
<path d="M5971 934 c0 -11 3 -14 6 -6 3 7 2 16 -1 19 -3 4 -6 -2 -5 -13z"/>
<path d="M7640 943 c0 -6 7 -24 14 -40 8 -15 18 -37 21 -47 3 -10 8 -16 11
-13 3 3 -5 30 -20 59 -14 29 -25 48 -26 41z"/>
<path d="M3607 862 c2 -42 7 -90 11 -107 7 -21 8 1 6 70 -2 54 -8 103 -12 107
-4 4 -6 -28 -5 -70z"/>
<path d="M4871 918 c0 -13 5 -32 10 -43 7 -15 8 -11 5 18 -3 22 -1 37 6 37 6
0 34 -20 62 -43 67 -57 136 -107 149 -107 5 0 -8 12 -29 26 -38 26 -94 70
-143 113 -32 28 -61 28 -60 -1z"/>
<path d="M2622 903 l3 -28 -90 -5 -90 -5 79 -6 c102 -8 116 -4 116 32 0 15 -5
31 -11 34 -6 4 -9 -4 -7 -22z"/>
<path d="M7502 903 l3 -28 -90 -5 -90 -5 80 -6 c44 -3 88 -2 98 3 19 9 23 53
6 63 -6 4 -9 -4 -7 -22z"/>
<path d="M1425 900 c-27 -30 -12 -34 15 -5 13 14 19 25 13 25 -5 0 -18 -9 -28
-20z"/>
<path d="M1497 908 c14 -7 23 -22 26 -42 3 -25 4 -23 5 12 2 40 1 42 -25 41
-27 0 -27 -1 -6 -11z"/>
<path d="M3300 915 c0 -18 43 -145 47 -141 3 3 -2 28 -11 55 -9 27 -16 57 -16
65 0 8 -4 18 -10 21 -5 3 -10 3 -10 0z"/>
<path d="M595 871 c-8 -48 2 -108 24 -141 9 -14 21 -36 28 -50 6 -15 12 -19
12 -10 1 9 -11 32 -25 53 -21 32 -26 50 -26 113 -1 40 -2 74 -4 74 -1 0 -5
-17 -9 -39z"/>
<path d="M2986 818 c-8 -117 -7 -362 2 -412 4 -21 7 84 7 233 0 149 0 271 -1
271 0 0 -4 -41 -8 -92z"/>
<path d="M3410 902 c0 -7 13 -36 29 -65 16 -29 41 -76 56 -104 15 -29 30 -53
34 -53 4 0 20 -22 36 -50 16 -27 33 -50 37 -50 5 0 -16 35 -45 78 -29 42 -66
103 -82 135 -52 102 -64 122 -65 109z"/>
<path d="M476 878 c-8 -32 -7 -221 2 -235 4 -6 8 49 10 123 1 74 1 134 -1 134
-3 0 -7 -10 -11 -22z"/>
<path d="M6636 873 c-10 -11 -7 -35 5 -28 11 8 5 -80 -13 -173 -5 -30 -7 -56
-4 -59 3 -3 7 0 10 8 8 27 26 174 26 211 0 36 -11 54 -24 41z"/>
<path d="M7280 869 c0 -5 9 -9 20 -9 11 0 20 2 20 4 0 2 -9 6 -20 9 -11 3 -20
1 -20 -4z"/>
<path d="M3145 860 c-3 -5 -8 -43 -10 -82 -4 -70 -4 -71 4 -17 13 88 31 104
48 42 9 -34 11 -35 12 -11 2 52 -35 99 -54 68z"/>
<path d="M5274 846 c27 -13 61 -27 75 -30 14 -3 3 5 -26 18 -71 33 -109 42
-49 12z"/>
<path d="M890 834 c-6 -14 -10 -35 -9 -47 1 -16 3 -14 8 9 13 50 18 54 54 36
42 -20 49 -31 44 -67 -3 -16 -1 -39 3 -50 7 -16 8 -12 8 15 -1 83 -7 99 -45
115 -47 20 -52 19 -63 -11z"/>
<path d="M4897 835 c9 -25 63 -75 83 -75 8 0 1 9 -16 19 -17 10 -40 32 -52 47
-15 20 -20 22 -15 9z"/>
<path d="M1410 829 c-1 -43 80 -67 100 -30 16 31 12 37 -10 13 -27 -29 -44
-28 -69 6 -14 18 -20 22 -21 11z"/>
<path d="M2225 810 c-4 -12 -5 -24 -2 -27 3 -2 8 5 12 17 4 12 5 24 2 27 -3 2
-8 -5 -12 -17z"/>
<path d="M6591 790 c-12 -22 -28 -40 -35 -40 -17 0 -49 -48 -43 -63 2 -7 0
-22 -4 -35 -8 -20 -13 -23 -41 -17 -18 4 -34 9 -36 10 -2 2 6 21 18 44 25 50
20 54 -9 7 -30 -48 -28 -76 7 -77 64 -3 73 5 81 63 5 31 12 46 30 54 23 12 78
94 62 94 -4 0 -17 -18 -30 -40z"/>
<path d="M7106 815 c-9 -26 -7 -32 5 -12 6 10 9 21 6 23 -2 3 -7 -2 -11 -11z"/>
<path d="M7691 810 c0 -14 4 -32 9 -40 8 -12 10 -12 9 5 0 11 -4 29 -9 40 -8
18 -9 18 -9 -5z"/>
<path d="M322 790 c0 -19 2 -27 5 -17 2 9 2 25 0 35 -3 9 -5 1 -5 -18z"/>
<path d="M5433 758 c31 -29 63 -70 72 -90 21 -52 19 -142 -4 -187 -10 -20 -22
-49 -27 -66 -6 -18 -25 -40 -47 -54 -20 -13 -35 -26 -32 -29 9 -9 76 50 87 77
6 14 20 48 31 75 24 54 28 147 7 187 -15 29 -121 139 -134 139 -5 0 16 -24 47
-52z"/>
<path d="M4811 769 c-1 -30 5 -42 34 -68 20 -17 41 -31 48 -30 7 0 4 6 -7 12
-46 30 -59 46 -66 83 l-8 39 -1 -36z"/>
<path d="M6766 769 c-9 -44 -19 -173 -21 -284 -1 -60 -5 -123 -9 -138 -8 -25
-12 -27 -40 -22 -17 4 -41 18 -53 31 -27 29 -31 9 -5 -22 22 -26 84 -30 104
-7 9 11 13 52 14 137 0 67 6 166 11 221 10 96 10 133 -1 84z"/>
<path d="M2568 771 c-36 -3 -70 -10 -75 -15 -8 -8 123 0 159 10 17 5 21 -2 33
-65 l7 -34 -183 5 c-101 3 -164 1 -139 -3 25 -4 109 -8 187 -8 140 -1 170 6
144 32 -6 6 -11 23 -11 37 0 30 -17 51 -39 48 -9 0 -46 -4 -83 -7z"/>
<path d="M5130 772 c8 -5 26 -13 40 -16 17 -5 20 -4 10 2 -8 5 -26 13 -40 16
-17 5 -20 4 -10 -2z"/>
<path d="M7077 739 c-9 -24 -34 -66 -55 -94 -52 -69 -74 -106 -69 -111 3 -3
15 12 28 33 13 21 25 40 29 43 36 32 95 141 87 163 -1 5 -11 -10 -20 -34z"/>
<path d="M7448 771 c-36 -3 -70 -9 -74 -13 -9 -9 30 -9 109 1 65 8 71 4 81
-53 l7 -39 -178 5 c-98 3 -158 1 -133 -3 25 -4 107 -8 183 -8 l138 -1 -7 48
c-7 53 -19 73 -43 70 -9 0 -46 -4 -83 -7z"/>
<path d="M2192 724 c-13 -25 -40 -69 -60 -97 -86 -117 -130 -228 -115 -287 4
-16 14 -20 50 -20 43 0 45 1 65 48 22 50 97 160 124 183 11 9 68 18 158 26
l141 11 -125 -1 c-69 -1 -136 -5 -150 -10 -14 -4 -41 -28 -60 -54 -19 -25 -40
-50 -46 -57 -13 -14 -39 -62 -56 -103 -11 -29 -17 -33 -52 -33 l-38 0 4 66 c2
36 9 68 15 72 6 4 18 24 27 45 9 22 39 71 67 109 48 66 85 135 76 144 -2 2
-13 -17 -25 -42z"/>
<path d="M6150 763 c0 -5 12 -26 25 -48 30 -49 34 -31 4 19 -20 35 -29 44 -29
29z"/>
<path d="M3201 743 c-1 -13 5 -40 13 -60 8 -21 19 -54 25 -73 l11 -35 -5 43
c-3 24 -10 51 -15 60 -5 9 -14 33 -19 52 -6 24 -9 28 -10 13z"/>
<path d="M3350 753 c0 -5 12 -26 26 -48 18 -28 23 -32 18 -15 -11 38 -45 86
-44 63z"/>
<path d="M5005 752 c6 -6 36 -18 68 -26 31 -8 67 -22 79 -30 12 -9 27 -16 33
-16 21 1 -57 42 -102 55 -27 7 -57 16 -68 20 -14 6 -17 5 -10 -3z"/>
<path d="M5977 749 c19 -6 39 -21 47 -37 11 -19 15 -22 16 -9 0 26 -37 57 -67
56 -28 -1 -27 -1 4 -10z"/>
<path d="M2370 741 c-48 -10 -60 -18 -60 -44 0 -21 1 -21 13 3 11 21 21 26 75
31 34 3 65 9 69 12 8 9 -50 7 -97 -2z"/>
<path d="M2836 680 c7 -78 29 -198 38 -208 9 -9 6 19 -9 83 -8 33 -15 83 -16
110 0 28 -5 59 -10 70 -6 13 -7 -6 -3 -55z"/>
<path d="M5235 732 c33 -20 65 -34 65 -28 0 5 -79 46 -88 46 -4 0 7 -8 23 -18z"/>
<path d="M5807 743 c-4 -3 -7 -24 -7 -45 0 -34 3 -38 25 -38 17 0 23 -4 19
-14 -5 -12 12 -15 99 -15 104 0 105 0 105 24 0 14 -4 22 -9 19 -5 -3 -9 -12
-9 -20 0 -8 -7 -14 -15 -14 -8 0 -15 5 -15 10 0 6 -26 10 -57 10 -97 0 -133 9
-133 34 0 36 14 45 75 49 l60 3 -66 2 c-36 1 -69 -1 -72 -5z"/>
<path d="M7250 741 c-48 -10 -60 -18 -60 -44 0 -21 1 -21 13 3 11 21 21 26 75
31 34 3 65 9 69 12 8 9 -50 7 -97 -2z"/>
<path d="M3097 733 c-3 -5 -3 -21 0 -38 5 -31 7 -63 5 -105 -1 -14 2 -74 6
-135 9 -131 3 -155 -43 -155 -27 0 -35 6 -49 33 -8 17 -16 25 -16 17 -1 -58
83 -83 114 -34 15 22 16 39 8 140 -7 75 -7 127 0 151 16 57 -5 160 -25 126z"/>
<path d="M7717 660 c3 -47 9 -92 14 -100 10 -18 0 112 -11 155 -5 18 -6 -3 -3
-55z"/>
<path d="M3630 713 c0 -18 57 -80 80 -86 11 -3 20 -1 20 4 0 5 -6 9 -12 9 -16
1 -61 40 -76 66 -6 10 -12 14 -12 7z"/>
<path d="M5320 685 c7 -9 15 -13 17 -11 7 7 -7 26 -19 26 -6 0 -6 -6 2 -15z"/>
<path d="M976 674 c-4 -9 -4 -19 -1 -22 2 -3 7 3 11 12 4 9 4 19 1 22 -2 3 -7
-3 -11 -12z"/>
<path d="M5226 665 c39 -17 124 -111 124 -136 0 -25 -3 -24 -52 11 -22 17 -46
30 -52 30 -6 0 8 -12 32 -26 23 -14 42 -29 42 -35 0 -5 10 -9 23 -9 21 -1 22
-1 3 -15 -15 -11 -16 -15 -5 -15 26 0 69 79 69 127 0 38 -3 44 -32 59 l-33 16
29 -24 c26 -22 29 -29 23 -68 -6 -45 -37 -92 -37 -56 0 45 -108 157 -150 155
-8 0 -1 -7 16 -14z"/>
<path d="M330 660 c0 -15 25 -97 41 -135 6 -13 7 -6 3 20 -4 22 -10 44 -15 50
-5 5 -9 18 -9 30 0 25 -20 59 -20 35z"/>
<path d="M4920 660 c8 -5 22 -10 30 -10 13 0 13 1 0 10 -8 5 -22 10 -30 10
-13 0 -13 -1 0 -10z"/>
<path d="M6217 619 c8 -30 17 -60 20 -68 2 -8 5 -12 8 -9 6 6 -22 109 -34 121
-6 6 -3 -14 6 -44z"/>
<path d="M1251 637 c-6 -14 -17 -29 -26 -34 -9 -5 -18 -23 -20 -41 -4 -35 -27
-75 -65 -112 -14 -14 -43 -46 -65 -71 -22 -25 -62 -60 -90 -79 -48 -32 -54
-33 -145 -34 -52 -1 -117 2 -145 6 -42 7 -46 6 -25 -4 15 -7 75 -12 145 -12
109 -1 123 1 152 22 17 12 38 22 47 22 9 0 16 4 16 9 0 5 8 12 18 15 9 3 23
18 29 34 7 15 33 48 58 72 43 43 143 216 131 227 -3 3 -10 -6 -15 -20z"/>
<path d="M3420 623 c46 -84 68 -117 113 -163 45 -47 151 -109 164 -97 3 4 -3
9 -13 13 -75 24 -170 101 -201 161 -24 49 -72 123 -78 123 -3 0 4 -17 15 -37z"/>
<path d="M660 644 c0 -5 23 -32 52 -59 l52 -50 -49 55 c-27 30 -50 57 -52 59
-2 2 -3 0 -3 -5z"/>
<path d="M1123 595 c-18 -29 -33 -59 -33 -67 0 -30 -85 -108 -145 -133 -33
-13 -52 -25 -43 -25 48 0 136 56 173 113 12 20 21 24 30 17 8 -7 21 -1 43 21
18 17 29 35 26 40 -9 16 -32 10 -48 -13 l-16 -22 0 22 c0 12 4 22 8 22 10 0
48 67 42 74 -3 2 -20 -20 -37 -49z m37 -49 c0 -2 -7 -9 -15 -16 -12 -10 -15
-10 -15 4 0 9 7 16 15 16 8 0 15 -2 15 -4z"/>
<path d="M4990 641 c21 -12 126 -22 114 -12 -5 5 -36 11 -69 14 -33 3 -53 2
-45 -2z"/>
<path d="M946 613 c-29 -57 -61 -76 -123 -76 l-58 1 55 -8 c50 -7 58 -5 90 20
19 14 40 41 47 58 16 39 9 42 -11 5z"/>
<path d="M491 608 c-2 -30 30 -112 53 -136 23 -26 68 -52 88 -52 7 0 -7 11
-32 23 -47 24 -77 70 -98 147 -6 19 -10 27 -11 18z"/>
<path d="M3765 610 c39 -10 125 -11 147 -2 9 4 -27 7 -80 8 -58 0 -85 -2 -67
-6z"/>
<path d="M5169 595 c30 -14 56 -23 59 -21 5 5 -50 30 -89 40 -13 3 0 -5 30
-19z"/>
<path d="M5977 598 c-7 -4 -35 -8 -64 -8 -69 0 -122 -24 -123 -54 0 -6 6 -2
13 8 10 14 44 23 133 37 65 10 120 18 122 19 2 0 8 -14 14 -31 6 -16 13 -28
16 -25 2 3 -1 19 -8 36 -11 27 -16 30 -52 28 -22 -2 -45 -6 -51 -10z"/>
<path d="M2642 583 l77 -4 6 -47 c7 -49 17 -84 42 -140 10 -24 19 -32 30 -28
9 4 24 -1 34 -10 10 -9 22 -13 27 -10 12 7 21 66 10 66 -4 0 -8 -13 -8 -30 0
-30 -13 -40 -25 -19 -4 5 -17 14 -30 19 -28 11 -65 88 -65 137 0 65 -11 73
-98 71 l-77 -2 77 -3z"/>
<path d="M5652 477 c-2 -88 0 -116 12 -132 9 -11 16 -15 16 -8 0 6 -4 15 -10
18 -13 8 -13 150 -1 173 6 11 5 25 -2 39 -10 18 -13 2 -15 -90z"/>
<path d="M7198 581 c-48 -5 -61 -11 -87 -40 -17 -19 -31 -37 -31 -40 0 -3 -14
-22 -30 -41 -17 -19 -33 -44 -36 -55 -19 -65 -27 -74 -74 -78 l-45 -3 48 -2
48 -2 24 54 c23 53 103 167 128 183 7 4 75 13 152 19 129 10 133 11 50 11 -49
0 -116 -3 -147 -6z"/>
<path d="M7521 583 c77 -4 77 -4 83 -35 3 -17 6 -41 6 -54 0 -14 4 -32 9 -42
5 -9 13 -26 16 -37 4 -11 9 -15 12 -8 2 6 -3 25 -11 42 -9 16 -16 43 -16 60 0
16 -4 41 -10 55 -9 25 -12 26 -87 24 l-78 -2 76 -3z"/>
<path d="M3250 565 c0 -3 16 -36 36 -73 34 -63 131 -169 143 -156 3 3 -4 13
-16 21 -59 40 -75 60 -135 176 -18 34 -28 45 -28 32z"/>
<path d="M3610 564 c0 -18 130 -94 160 -93 8 0 -9 11 -37 24 -29 13 -68 36
-88 51 -19 14 -35 22 -35 18z"/>
<path d="M6611 534 c0 -11 3 -14 6 -6 3 7 2 16 -1 19 -3 4 -6 -2 -5 -13z"/>
<path d="M6115 463 c14 -37 25 -69 25 -69 0 -1 9 -4 20 -7 11 -3 20 -14 20
-25 0 -13 8 -21 23 -24 33 -5 67 2 67 14 0 6 8 20 17 30 16 18 16 21 -1 53
-10 18 -22 48 -26 67 l-8 33 -1 -31 c-1 -16 6 -39 14 -50 16 -22 20 -64 5 -64
-5 0 -10 -9 -10 -19 0 -29 -49 -20 -73 13 -10 14 -24 26 -31 26 -7 0 -20 25
-30 55 -9 30 -21 57 -26 60 -5 3 2 -25 15 -62z"/>
<path d="M7741 515 c0 -11 4 -29 9 -40 l9 -20 0 20 c0 11 -4 29 -9 40 l-9 20
0 -20z"/>
<path d="M6922 483 c-12 -23 -22 -50 -21 -60 0 -11 5 -6 11 12 6 17 17 38 25
47 8 9 13 23 11 30 -3 7 -15 -6 -26 -29z"/>
<path d="M387 483 c18 -48 60 -117 73 -121 11 -4 10 0 -4 16 -10 12 -29 44
-42 72 -22 47 -41 71 -27 33z"/>
<path d="M3795 460 c3 -6 20 -10 37 -10 38 0 34 5 -10 13 -21 4 -31 3 -27 -3z"/>
<path d="M3985 459 c-16 -5 -50 -10 -75 -10 -36 -1 -41 -3 -26 -11 13 -7 34
-7 71 2 29 7 59 10 66 7 8 -3 2 -6 -12 -6 -26 -1 -45 -13 -68 -43 -10 -14 -9
-18 8 -28 15 -8 25 -8 34 0 6 6 19 16 29 23 9 7 19 27 23 45 7 35 2 37 -50 21z
m5 -43 c0 -3 -4 -8 -10 -11 -5 -3 -10 -1 -10 4 0 6 5 11 10 11 6 0 10 -2 10
-4z"/>
<path d="M4823 448 c-13 -13 -23 -28 -23 -33 0 -5 6 -1 13 9 19 26 98 31 153
10 25 -9 47 -15 50 -12 6 7 -80 35 -132 43 -33 6 -42 3 -61 -17z"/>
<path d="M5242 448 c-29 -12 -50 -23 -47 -26 4 -5 22 1 105 36 47 20 -5 11
-58 -10z"/>
<path d="M5783 445 c-3 -9 -3 -29 1 -46 8 -39 -9 -72 -33 -64 -10 3 -29 1 -42
-4 -21 -8 -18 -10 19 -9 58 2 72 18 72 84 0 54 -6 67 -17 39z"/>
<path d="M650 414 c0 -7 52 -25 57 -20 2 2 -10 8 -26 14 -17 6 -31 9 -31 6z"/>
<path d="M5047 408 c2 -5 28 -8 58 -8 30 0 56 3 58 8 3 4 -23 7 -58 7 -35 0
-61 -3 -58 -7z"/>
<path d="M7747 413 c-4 -3 -7 -19 -7 -35 0 -31 -6 -34 -29 -14 -25 21 -64 31
-59 15 3 -8 14 -15 26 -15 12 -1 29 -7 37 -14 20 -16 30 -5 38 38 7 33 5 37
-6 25z"/>
<path d="M735 380 c11 -5 34 -8 50 -8 l30 0 -30 8 c-16 4 -39 8 -50 8 l-20 1
20 -9z"/>
<path d="M4810 382 c0 -24 57 -68 111 -85 28 -10 54 -15 57 -13 2 3 -9 8 -24
12 -49 12 -101 42 -123 71 -11 15 -21 22 -21 15z"/>
<path d="M6892 365 c0 -16 2 -22 5 -12 2 9 2 23 0 30 -3 6 -5 -1 -5 -18z"/>
<path d="M1010 361 c0 -25 6 -27 13 -6 4 8 2 17 -3 20 -6 4 -10 -3 -10 -14z"/>
<path d="M490 349 c52 -35 158 -80 146 -61 -3 5 -18 12 -33 15 -16 3 -45 17
-66 31 -21 14 -43 26 -50 26 -7 0 -6 -4 3 -11z"/>
<path d="M920 350 c0 -5 5 -10 10 -10 6 0 10 5 10 10 0 6 -4 10 -10 10 -5 0
-10 -4 -10 -10z"/>
<path d="M3720 351 c8 -5 33 -12 55 -16 26 -4 35 -3 25 3 -8 5 -33 12 -55 16
-26 4 -35 3 -25 -3z"/>
<path d="M3905 353 c-22 -3 -44 -9 -50 -14 -12 -12 86 0 100 12 5 6 5 8 0 7
-6 -1 -28 -3 -50 -5z"/>
<path d="M5310 313 c-25 -9 -51 -18 -59 -20 -8 -2 -12 -6 -9 -8 5 -5 138 34
138 41 0 7 -24 3 -70 -13z"/>
<path d="M5020 264 c43 -20 182 -16 202 5 11 11 9 12 -12 5 -25 -9 -137 -8
-195 1 -30 5 -30 5 5 -11z"/>
</g>
</svg>
